<svg xmlns="http://www.w3.org/2000/svg" xmlns:xlink="http://www.w3.org/1999/xlink" xmlns:lucid="lucid" width="1408.35" height="460"><g transform="translate(-240 -459.99999991291565)" lucid:page-tab-id="HowzCfBBZfS3"><path d="M0 0h1760v1360H0z" fill="#fff"/><path d="M820 482a2 2 0 0 1 2-2h196a2 2 0 0 1 2 2v324.9a2 2 0 0 1-2 2H822a2 2 0 0 1-2-2z" fill="#e1f5fe"/><use xlink:href="#a" transform="matrix(1,0,0,1,836,495.99999991291565) translate(0 16.69921875)"/><use xlink:href="#b" transform="matrix(1,0,0,1,836,495.99999991291565) translate(50.6953125 16.69921875)"/><path d="M460 610.52a2 2 0 0 1 2-2h76a2 2 0 0 1 2 2v56.55a2 2 0 0 1-2 2h-76a2 2 0 0 1-2-2z" fill="#f3e5f5"/><use xlink:href="#c" transform="matrix(1,0,0,1,476,624.5215188035124) translate(0 16.69921875)"/><path d="M840 542a2 2 0 0 1 2-2h156a2 2 0 0 1 2 2v56a2 2 0 0 1-2 2H842a2 2 0 0 1-2-2z" fill="#f6f6f6"/><use xlink:href="#d" transform="matrix(1,0,0,1,856.0000270726372,555.9999999129157) translate(0 16.69921875)"/><use xlink:href="#e" transform="matrix(1,0,0,1,856.0000270726372,555.9999999129157) translate(56.4169921875 16.69921875)"/><path d="M840 632a2 2 0 0 1 2-2h156a2 2 0 0 1 2 2v56a2 2 0 0 1-2 2H842a2 2 0 0 1-2-2z" fill="#f6f6f6"/><use xlink:href="#d" transform="matrix(1,0,0,1,856,645.9999999129157) translate(0 16.69921875)"/><use xlink:href="#f" transform="matrix(1,0,0,1,856,645.9999999129157) translate(56.4169921875 16.69921875)"/><path d="M840 722a2 2 0 0 1 2-2h156a2 2 0 0 1 2 2v56a2 2 0 0 1-2 2H842a2 2 0 0 1-2-2z" fill="#f6f6f6"/><use xlink:href="#d" transform="matrix(1,0,0,1,856,735.9999999129157) translate(0 16.69921875)"/><use xlink:href="#g" transform="matrix(1,0,0,1,856,735.9999999129157) translate(56.4169921875 16.69921875)"/><path d="M1060 843.1a2 2 0 0 1 2-2h196a2 2 0 0 1 2 2V898a2 2 0 0 1-2 2h-196a2 2 0 0 1-2-2z" fill="#fce4ec"/><use xlink:href="#h" transform="matrix(1,0,0,1,1076,857.1004703806154) translate(0 16.69921875)"/><use xlink:href="#i" transform="matrix(1,0,0,1,1076,857.1004703806154) translate(49.130859375 16.69921875)"/><path d="M1060 482a2 2 0 0 1 2-2h196a2 2 0 0 1 2 2v324.9a2 2 0 0 1-2 2h-196a2 2 0 0 1-2-2z" fill="#fbe9e7"/><use xlink:href="#j" transform="matrix(1,0,0,1,1076,496) translate(0 16.69921875)"/><use xlink:href="#k" transform="matrix(1,0,0,1,1076,496) translate(50.23828125 16.69921875)"/><path d="M1080 542a2 2 0 0 1 2-2h156a2 2 0 0 1 2 2v56a2 2 0 0 1-2 2h-156a2 2 0 0 1-2-2z" fill="#f6f6f6"/><use xlink:href="#l" transform="matrix(1,0,0,1,1096.0000270726373,556) translate(0 16.69921875)"/><use xlink:href="#e" transform="matrix(1,0,0,1,1096.0000270726373,556) translate(86.9765625 16.69921875)"/><path d="M1080 632a2 2 0 0 1 2-2h156a2 2 0 0 1 2 2v56a2 2 0 0 1-2 2h-156a2 2 0 0 1-2-2z" fill="#f6f6f6"/><use xlink:href="#l" transform="matrix(1,0,0,1,1096.0000270726373,646) translate(0 16.69921875)"/><use xlink:href="#f" transform="matrix(1,0,0,1,1096.0000270726373,646) translate(86.9765625 16.69921875)"/><path d="M1080 722a2 2 0 0 1 2-2h156a2 2 0 0 1 2 2v56a2 2 0 0 1-2 2h-156a2 2 0 0 1-2-2z" fill="#f6f6f6"/><use xlink:href="#l" transform="matrix(1,0,0,1,1096.0000270726373,736) translate(0 16.69921875)"/><use xlink:href="#g" transform="matrix(1,0,0,1,1096.0000270726373,736) translate(86.9765625 16.69921875)"/><path d="M1300 482a2 2 0 0 1 2-2h184.35a2 2 0 0 1 2 2v324.9a2 2 0 0 1-2 2H1302a2 2 0 0 1-2-2z" fill="#f9fbe7"/><use xlink:href="#m" transform="matrix(1,0,0,1,1316,495.99999991291565) translate(0 16.69921875)"/><path d="M1528.35 616.45a2 2 0 0 1 2-2h96a2 2 0 0 1 2 2v56a2 2 0 0 1-2 2h-96a2 2 0 0 1-2-2z" fill="#eceff1"/><use xlink:href="#n" transform="matrix(1,0,0,1,1544.3493079653954,630.4497647226079) translate(0 16.69921875)"/><path d="M580 482a2 2 0 0 1 2-2h196a2 2 0 0 1 2 2v324.9a2 2 0 0 1-2 2H582a2 2 0 0 1-2-2z" fill="#f1f8e9"/><use xlink:href="#o" transform="matrix(1,0,0,1,596,496) translate(0 16.69921875)"/><path d="M600 542a2 2 0 0 1 2-2h156a2 2 0 0 1 2 2v56a2 2 0 0 1-2 2H602a2 2 0 0 1-2-2z" fill="#f6f6f6"/><use xlink:href="#p" transform="matrix(1,0,0,1,616,556) translate(0 16.69921875)"/><use xlink:href="#e" transform="matrix(1,0,0,1,616,556) translate(77.115234375 16.69921875)"/><path d="M600 632a2 2 0 0 1 2-2h156a2 2 0 0 1 2 2v56a2 2 0 0 1-2 2H602a2 2 0 0 1-2-2z" fill="#f6f6f6"/><use xlink:href="#p" transform="matrix(1,0,0,1,616,646) translate(0 16.69921875)"/><use xlink:href="#f" transform="matrix(1,0,0,1,616,646) translate(77.115234375 16.69921875)"/><path d="M600 722a2 2 0 0 1 2-2h156a2 2 0 0 1 2 2v56a2 2 0 0 1-2 2H602a2 2 0 0 1-2-2z" fill="#f6f6f6"/><use xlink:href="#p" transform="matrix(1,0,0,1,616,736) translate(0 16.69921875)"/><use xlink:href="#g" transform="matrix(1,0,0,1,616,736) translate(77.115234375 16.69921875)"/><path d="M260 611.07a2 2 0 0 1 2-2h156a2 2 0 0 1 2 2v56a2 2 0 0 1-2 2H262a2 2 0 0 1-2-2z" fill="#fbe9e7"/><use xlink:href="#q" transform="matrix(1,0,0,1,276,625.0717539938203) translate(0 16.69921875)"/><use xlink:href="#r" transform="matrix(1,0,0,1,276,625.0717539938203) translate(34.505859375 16.69921875)"/><path d="M1308.9 542a2 2 0 0 1 2-2h156a2 2 0 0 1 2 2v56a2 2 0 0 1-2 2h-156a2 2 0 0 1-2-2z" fill="#f6f6f6"/><use xlink:href="#s" transform="matrix(1,0,0,1,1324.8995973009776,556) translate(0 16.69921875)"/><use xlink:href="#t" transform="matrix(1,0,0,1,1324.8995973009776,556) translate(47.2412109375 16.69921875)"/><path d="M1308.9 632a2 2 0 0 1 2-2h156a2 2 0 0 1 2 2v56a2 2 0 0 1-2 2h-156a2 2 0 0 1-2-2z" fill="#f6f6f6"/><use xlink:href="#s" transform="matrix(1,0,0,1,1324.8995973009776,646) translate(0 16.69921875)"/><use xlink:href="#u" transform="matrix(1,0,0,1,1324.8995973009776,646) translate(47.2412109375 16.69921875)"/><path d="M1308.9 722a2 2 0 0 1 2-2h156a2 2 0 0 1 2 2v56a2 2 0 0 1-2 2h-156a2 2 0 0 1-2-2z" fill="#f6f6f6"/><use xlink:href="#s" transform="matrix(1,0,0,1,1324.8995973009776,736) translate(0 16.69921875)"/><use xlink:href="#v" transform="matrix(1,0,0,1,1324.8995973009776,736) translate(47.2412109375 16.69921875)"/><path d="M1158.6 811.4a2 2 0 0 1 2.8 0l8.3 8.3a.83.83 0 0 1-.6 1.4h-1.55a2 2 0 0 0-2 2v6a2 2 0 0 0 2 2h1.55a.83.83 0 0 1 .6 1.4l-8.3 8.3a2 2 0 0 1-2.8 0l-8.3-8.3a.83.83 0 0 1 .6-1.4h1.55a2 2 0 0 0 2-2v-6a2 2 0 0 0-2-2h-1.55a.83.83 0 0 1-.6-1.4z" stroke="#000" fill="#fff8e1"/><path d="M420.5 639.07h19.23a.28.28 0 0 0 .27-.27.28.28 0 0 1 .27-.28h3.35" stroke="#333" fill="none"/><path d="M420.5 639.57h-.5v-1h.5z" stroke="#333" stroke-width=".05" fill="#333"/><path d="M458.38 638.52l-14.26 4.64v-9.27z" stroke="#333" fill="#333"/><path d="M540.5 638.8h19.23a.28.28 0 0 1 .27.27.28.28 0 0 0 .27.28h3.35" stroke="#333" fill="none"/><path d="M540.5 639.3h-.5v-1h.5z" stroke="#333" stroke-width=".05" fill="#333"/><path d="M578.38 639.35l-14.26 4.63v-9.27z" stroke="#333" fill="#333"/><path d="M760.5 570H823.62" stroke="#333" fill="none"/><path d="M760.5 570.5h-.5v-1h.5z" stroke="#333" stroke-width=".05" fill="#333"/><path d="M838.38 570l-14.26 4.63v-9.26z" stroke="#333" fill="#333"/><path d="M760.5 660H823.62" stroke="#333" fill="none"/><path d="M760.5 660.5h-.5v-1h.5z" stroke="#333" stroke-width=".05" fill="#333"/><path d="M838.38 660l-14.26 4.63v-9.26z" stroke="#333" fill="#333"/><path d="M760.5 750H823.62" stroke="#333" fill="none"/><path d="M760.5 750.5h-.5v-1h.5z" stroke="#333" stroke-width=".05" fill="#333"/><path d="M838.38 750l-14.26 4.63v-9.26z" stroke="#333" fill="#333"/><path d="M1000.5 570H1063.62" stroke="#333" fill="none"/><path d="M1000.5 570.5h-.5v-1h.5z" stroke="#333" stroke-width=".05" fill="#333"/><path d="M1078.38 570l-14.27 4.63.02-9.26z" stroke="#333" fill="#333"/><path d="M1000.5 660H1063.62" stroke="#333" fill="none"/><path d="M1000.5 660.5h-.5v-1h.5z" stroke="#333" stroke-width=".05" fill="#333"/><path d="M1078.38 660l-14.27 4.63.02-9.26z" stroke="#333" fill="#333"/><path d="M1000.5 750H1063.62" stroke="#333" fill="none"/><path d="M1000.5 750.5h-.5v-1h.5z" stroke="#333" stroke-width=".05" fill="#333"/><path d="M1078.38 750l-14.27 4.63.02-9.26z" stroke="#333" fill="#333"/><path d="M1488.85 644.45h23.1" stroke="#333" fill="none"/><path d="M1488.86 644.95h-.5v-1h.5z" stroke="#333" stroke-width=".05" fill="#333"/><path d="M1526.73 644.45l-14.27 4.63v-9.27z" stroke="#333" fill="#333"/><path d="M1260.5 644.45h23.12" stroke="#333" fill="none"/><path d="M1260.5 644.95h-.5v-1h.5z" stroke="#333" stroke-width=".05" fill="#333"/><path d="M1298.38 644.45l-14.27 4.63.02-9.27z" stroke="#333" fill="#333"/><defs><path d="M539-677L361-492V0H169v-1456h192v720l647-720h232L667-813 1285 0h-230" id="w"/><path d="M561-1102c238-4 403 126 403 351v498c0 99 13 178 38 237V0H808c-11-21-19-59-26-114C696-25 593 20 474 20c-199 0-368-130-365-320 4-251 214-359 490-356h180v-85c-1-135-86-212-229-212-115 0-232 67-233 171H131c20-205 206-316 430-320zM294-326c0 117 90 185 207 185 122 0 239-75 278-162v-222H634c-227 0-340 66-340 199" id="x"/><path d="M704-1390c-164-38-297 28-288 194v114h231v143H416V0H231v-939H60v-143h171v-111c-12-274 208-416 483-347" id="y"/><path d="M442-501L326-380V0H141v-1536h185v929c135-169 291-317 436-475h225L566-630 1036 0H819" id="z"/><g id="a"><use transform="matrix(0.0087890625,0,0,0.0087890625,0,0)" xlink:href="#w"/><use transform="matrix(0.0087890625,0,0,0.0087890625,11.28515625,0)" xlink:href="#x"/><use transform="matrix(0.0087890625,0,0,0.0087890625,21.076171875,0)" xlink:href="#y"/><use transform="matrix(0.0087890625,0,0,0.0087890625,27.3251953125,0)" xlink:href="#z"/><use transform="matrix(0.0087890625,0,0,0.0087890625,36.4482421875,0)" xlink:href="#x"/></g><path d="M688-137c238 0 323-102 359-325h193c-32 297-228 482-552 482-361 0-569-299-569-680 0-197 8-360 73-497 88-186 257-317 513-319 316-2 509 195 535 488h-193c-31-212-118-330-342-330-272 0-397 224-393 523v141c-3 282 115 517 376 517" id="A"/><path d="M341 0H156v-1536h185V0" id="B"/><path d="M491 20c-241-1-355-148-355-398v-704h185v699c0 164 67 246 200 246 141 0 235-53 282-158v-787h185V0H812l-4-107C736-22 630 20 491 20" id="C"/><path d="M538-131c121 0 232-49 232-156 0-50-20-88-56-117-73-60-334-92-420-143-92-55-162-110-162-238 0-190 192-317 400-317 223 0 414 129 413 338H759c0-108-110-186-227-186-119 0-215 53-215 159 0 45 18 78 53 101 76 52 331 90 416 139 98 57 169 115 169 251C955-92 760 20 538 20c-176 0-314-68-386-174-38-55-57-115-57-179h185c6 129 116 202 258 202" id="D"/><path d="M456 20C285 20 205-92 206-268v-671H9v-143h197v-262h185v262h202v143H391v671c-9 125 92 149 207 118V0c-49 13-96 20-142 20" id="E"/><path d="M599-131c141 0 220-65 285-146l113 88C906-50 770 20 589 20 281 21 93-214 93-545c0-223 93-397 233-485 74-48 154-72 240-72 300 2 449 218 445 537v77H278c0 197 129 357 321 357zm227-509c-3-180-88-310-260-310-170 0-264 140-282 310h542" id="F"/><path d="M663-916c-163-27-288 18-338 148V0H140v-1082h180l3 125c61-97 147-145 258-145 36 0 63 5 82 14v172" id="G"/><g id="b"><use transform="matrix(0.0087890625,0,0,0.0087890625,0,0)" xlink:href="#A"/><use transform="matrix(0.0087890625,0,0,0.0087890625,11.7158203125,0)" xlink:href="#B"/><use transform="matrix(0.0087890625,0,0,0.0087890625,16.083984375,0)" xlink:href="#C"/><use transform="matrix(0.0087890625,0,0,0.0087890625,26.0068359375,0)" xlink:href="#D"/><use transform="matrix(0.0087890625,0,0,0.0087890625,35.2880859375,0)" xlink:href="#E"/><use transform="matrix(0.0087890625,0,0,0.0087890625,41.16796875,0)" xlink:href="#F"/><use transform="matrix(0.0087890625,0,0,0.0087890625,50.7041015625,0)" xlink:href="#G"/></g><path d="M1288 0h-193L362-1122V0H169v-1456h193l735 1127v-1127h191V0" id="H"/><path d="M521 20C240 20 96-239 96-550c0-303 147-552 427-552 132 0 235 47 309 140l9-120h169V-26c4 277-183 454-459 452-165-1-334-81-400-187l96-111c79 98 176 147 291 147 180 1 288-109 286-290v-93C750-23 649 20 521 20zm48-965c-209 0-287 178-287 416 0 217 86 392 285 392 117 0 202-53 257-159v-494c-57-103-142-155-255-155" id="I"/><path d="M341 0H156v-1082h185V0zm-91-1264c-68 0-108-42-109-105 0-62 41-107 109-107s110 44 110 107-42 105-110 105" id="J"/><path d="M589-945c-131 0-219 81-264 174V0H140v-1082h175l6 136c83-104 191-156 324-156 229 0 346 129 346 387V0H806v-716c-2-153-65-229-217-229" id="K"/><path d="M503-687l240-395h216L605-547 970 0H756L506-405 256 0H41l365-547-354-535h214" id="L"/><g id="c"><use transform="matrix(0.0087890625,0,0,0.0087890625,0,0)" xlink:href="#H"/><use transform="matrix(0.0087890625,0,0,0.0087890625,12.83203125,0)" xlink:href="#I"/><use transform="matrix(0.0087890625,0,0,0.0087890625,22.9306640625,0)" xlink:href="#J"/><use transform="matrix(0.0087890625,0,0,0.0087890625,27.298828125,0)" xlink:href="#K"/><use transform="matrix(0.0087890625,0,0,0.0087890625,37.23046875,0)" xlink:href="#L"/></g><path d="M1160-420C1159-145 963 0 674 0H169v-1456h476c294-1 476 112 476 388 0 153-99 253-216 302 146 38 255 167 255 346zM678-157c171 2 289-95 289-261 0-175-95-263-286-263H361v524h317zm250-912c-2-172-104-229-283-229H361v463h290c157 3 278-84 277-234" id="M"/><path d="M584 20C278 26 81-227 91-551c10-320 175-545 491-551 308-5 503 247 494 573-9 322-175 543-492 549zm-2-970c-208 0-305 185-305 421 0 216 106 398 307 398 211 0 307-186 307-420 0-214-109-399-309-399" id="N"/><g id="d"><use transform="matrix(0.0087890625,0,0,0.0087890625,0,0)" xlink:href="#M"/><use transform="matrix(0.0087890625,0,0,0.0087890625,11.2060546875,0)" xlink:href="#G"/><use transform="matrix(0.0087890625,0,0,0.0087890625,17.12109375,0)" xlink:href="#N"/><use transform="matrix(0.0087890625,0,0,0.0087890625,27.38671875,0)" xlink:href="#z"/><use transform="matrix(0.0087890625,0,0,0.0087890625,36.333984375,0)" xlink:href="#F"/><use transform="matrix(0.0087890625,0,0,0.0087890625,45.8701171875,0)" xlink:href="#G"/></g><path d="M729 0H543v-1233l-373 137v-168l530-199h29V0" id="O"/><use transform="matrix(0.0087890625,0,0,0.0087890625,0,0)" xlink:href="#O" id="e"/><path d="M569-1476c255 0 440 146 439 390 0 143-91 314-274 512L344-151h731V0H121v-133l504-560c75-85 125-155 155-207 105-184 6-424-211-424-183 0-293 113-291 297H93c-3-270 199-449 476-449" id="P"/><use transform="matrix(0.0087890625,0,0,0.0087890625,0,0)" xlink:href="#P" id="f"/><path d="M832-402c-1-179-119-264-303-265H390v-151h139c164 0 281-91 281-250 0-171-85-256-255-256-154 0-265 99-263 250H107c-4-235 205-402 448-402 266 0 444 150 440 412-2 148-109 272-229 317 147 45 249 158 251 341 3 262-197 426-461 426C299 20 91-135 94-384h186c-2 156 116 253 276 253 176 0 277-96 276-271" id="Q"/><use transform="matrix(0.0087890625,0,0,0.0087890625,0,0)" xlink:href="#Q" id="g"/><path d="M1161-1018c0 201-122 330-278 388l342 618V0h-206L703-589H361V0H168v-1456h482c310-2 511 139 511 438zm-193 0c0-187-120-280-313-280H361v552h295c179 3 313-101 312-272" id="R"/><path d="M520 20C244 20 95-247 95-550c0-298 151-550 427-552 127 0 227 43 301 130v-564h185V0H838l-9-116C755-25 652 20 520 20zm48-965c-210 0-288 177-288 416 0 218 87 392 286 392 117 0 203-53 257-158v-497c-55-102-140-153-255-153" id="S"/><g id="h"><use transform="matrix(0.0087890625,0,0,0.0087890625,0,0)" xlink:href="#R"/><use transform="matrix(0.0087890625,0,0,0.0087890625,11.0830078125,0)" xlink:href="#x"/><use transform="matrix(0.0087890625,0,0,0.0087890625,20.8740234375,0)" xlink:href="#S"/><use transform="matrix(0.0087890625,0,0,0.0087890625,31.025390625,0)" xlink:href="#J"/><use transform="matrix(0.0087890625,0,0,0.0087890625,35.3935546875,0)" xlink:href="#D"/></g><path d="M277-555c0 244 77 420 297 424 127 2 249-93 255-210h175C980-127 805 20 574 20 258 20 81-222 92-562c11-319 164-533 481-540 237-5 426 165 431 392H829c-7-133-115-242-256-240-209 4-296 166-296 395" id="T"/><path d="M589-945c-131 0-219 81-264 174V0H140v-1536h185v585c82-101 189-151 320-151 229 0 346 129 346 387V0H806v-716c-2-153-65-229-217-229" id="U"/><g id="i"><use transform="matrix(0.0087890625,0,0,0.0087890625,0,0)" xlink:href="#A"/><use transform="matrix(0.0087890625,0,0,0.0087890625,11.7158203125,0)" xlink:href="#x"/><use transform="matrix(0.0087890625,0,0,0.0087890625,21.5068359375,0)" xlink:href="#T"/><use transform="matrix(0.0087890625,0,0,0.0087890625,30.9287109375,0)" xlink:href="#U"/><use transform="matrix(0.0087890625,0,0,0.0087890625,40.8427734375,0)" xlink:href="#F"/></g><path d="M631-137c179 0 314-70 314-231 0-71-25-127-75-166s-141-77-272-115c-165-47-285-106-360-175s-112-154-112-255c0-245 231-397 495-397 206 0 369 89 449 218 43 68 65 142 65 223H942c0-184-129-283-321-283-172 0-299 76-301 236 0 59 26 109 76 150s135 78 256 113c205 59 345 116 436 256 35 53 50 119 50 193-2 256-231 398-507 390C333 12 90-129 80-422h193c0 187 160 285 358 285" id="V"/><path d="M632-1102c291 0 422 251 422 573 0 297-141 548-419 549-131 0-235-42-310-125v521H140v-1498h169l9 120c75-93 180-140 314-140zm-53 971c207 0 290-180 290-419 0-218-92-395-292-395-112 0-196 50-252 149v517c55 99 140 148 254 148" id="W"/><g id="j"><use transform="matrix(0.0087890625,0,0,0.0087890625,0,0)" xlink:href="#V"/><use transform="matrix(0.0087890625,0,0,0.0087890625,10.6787109375,0)" xlink:href="#W"/><use transform="matrix(0.0087890625,0,0,0.0087890625,20.77734375,0)" xlink:href="#x"/><use transform="matrix(0.0087890625,0,0,0.0087890625,30.568359375,0)" xlink:href="#G"/><use transform="matrix(0.0087890625,0,0,0.0087890625,36.6591796875,0)" xlink:href="#z"/></g><path d="M1240-945c-141 0-250 95-250 227V0H804v-709c0-157-77-236-231-236-121 0-204 52-249 155V0H139v-1082h175l5 120c79-93 186-140 321-140 151 0 254 58 309 174 69-98 181-174 345-174 237 0 362 126 362 377V0h-185v-714c-2-159-67-231-231-231" id="X"/><g id="k"><use transform="matrix(0.0087890625,0,0,0.0087890625,0,0)" xlink:href="#V"/><use transform="matrix(0.0087890625,0,0,0.0087890625,10.6787109375,0)" xlink:href="#E"/><use transform="matrix(0.0087890625,0,0,0.0087890625,16.55859375,0)" xlink:href="#G"/><use transform="matrix(0.0087890625,0,0,0.0087890625,22.482421875,0)" xlink:href="#F"/><use transform="matrix(0.0087890625,0,0,0.0087890625,32.0185546875,0)" xlink:href="#x"/><use transform="matrix(0.0087890625,0,0,0.0087890625,41.8095703125,0)" xlink:href="#X"/><use transform="matrix(0.0087890625,0,0,0.0087890625,57.5859375,0)" xlink:href="#J"/><use transform="matrix(0.0087890625,0,0,0.0087890625,61.9541015625,0)" xlink:href="#K"/><use transform="matrix(0.0087890625,0,0,0.0087890625,71.8857421875,0)" xlink:href="#I"/></g><g id="l"><use transform="matrix(0.0087890625,0,0,0.0087890625,0,0)" xlink:href="#A"/><use transform="matrix(0.0087890625,0,0,0.0087890625,11.7158203125,0)" xlink:href="#N"/><use transform="matrix(0.0087890625,0,0,0.0087890625,21.9814453125,0)" xlink:href="#K"/><use transform="matrix(0.0087890625,0,0,0.0087890625,31.9130859375,0)" xlink:href="#D"/><use transform="matrix(0.0087890625,0,0,0.0087890625,41.1943359375,0)" xlink:href="#C"/><use transform="matrix(0.0087890625,0,0,0.0087890625,51.1171875,0)" xlink:href="#X"/><use transform="matrix(0.0087890625,0,0,0.0087890625,66.8935546875,0)" xlink:href="#F"/><use transform="matrix(0.0087890625,0,0,0.0087890625,76.4296875,0)" xlink:href="#G"/></g><path d="M992-673H361v516h733V0H169v-1456h915v158H361v468h631v157" id="Y"/><g id="m"><use transform="matrix(0.0087890625,0,0,0.0087890625,0,0)" xlink:href="#Y"/><use transform="matrix(0.0087890625,0,0,0.0087890625,10.23046875,0)" xlink:href="#B"/><use transform="matrix(0.0087890625,0,0,0.0087890625,14.5986328125,0)" xlink:href="#x"/><use transform="matrix(0.0087890625,0,0,0.0087890625,24.3896484375,0)" xlink:href="#D"/><use transform="matrix(0.0087890625,0,0,0.0087890625,33.6708984375,0)" xlink:href="#E"/><use transform="matrix(0.0087890625,0,0,0.0087890625,39.55078125,0)" xlink:href="#J"/><use transform="matrix(0.0087890625,0,0,0.0087890625,43.9189453125,0)" xlink:href="#T"/><use transform="matrix(0.0087890625,0,0,0.0087890625,53.3408203125,0)" xlink:href="#D"/><use transform="matrix(0.0087890625,0,0,0.0087890625,62.6220703125,0)" xlink:href="#F"/><use transform="matrix(0.0087890625,0,0,0.0087890625,72.158203125,0)" xlink:href="#x"/><use transform="matrix(0.0087890625,0,0,0.0087890625,81.94921875,0)" xlink:href="#G"/><use transform="matrix(0.0087890625,0,0,0.0087890625,87.873046875,0)" xlink:href="#T"/><use transform="matrix(0.0087890625,0,0,0.0087890625,97.294921875,0)" xlink:href="#U"/></g><path d="M634-1102c292 0 422 254 422 573 0 298-143 547-420 549-137 0-242-48-317-145L310 0H140v-1536h185v573c75-93 178-139 309-139zm-44 965c207 0 281-175 281-413 0-224-79-395-283-395-122 0-210 57-263 170v468c57 113 145 170 265 170" id="Z"/><g id="n"><use transform="matrix(0.0087890625,0,0,0.0087890625,0,0)" xlink:href="#w"/><use transform="matrix(0.0087890625,0,0,0.0087890625,11.28515625,0)" xlink:href="#J"/><use transform="matrix(0.0087890625,0,0,0.0087890625,15.6533203125,0)" xlink:href="#Z"/><use transform="matrix(0.0087890625,0,0,0.0087890625,25.751953125,0)" xlink:href="#x"/><use transform="matrix(0.0087890625,0,0,0.0087890625,35.54296875,0)" xlink:href="#K"/><use transform="matrix(0.0087890625,0,0,0.0087890625,45.474609375,0)" xlink:href="#x"/></g><g id="o"><use transform="matrix(0.0087890625,0,0,0.0087890625,0,0)" xlink:href="#A"/><use transform="matrix(0.0087890625,0,0,0.0087890625,11.7158203125,0)" xlink:href="#N"/><use transform="matrix(0.0087890625,0,0,0.0087890625,21.9814453125,0)" xlink:href="#K"/><use transform="matrix(0.0087890625,0,0,0.0087890625,31.9130859375,0)" xlink:href="#E"/><use transform="matrix(0.0087890625,0,0,0.0087890625,37.79296875,0)" xlink:href="#G"/><use transform="matrix(0.0087890625,0,0,0.0087890625,43.7080078125,0)" xlink:href="#N"/><use transform="matrix(0.0087890625,0,0,0.0087890625,53.9736328125,0)" xlink:href="#B"/><use transform="matrix(0.0087890625,0,0,0.0087890625,58.341796875,0)" xlink:href="#B"/><use transform="matrix(0.0087890625,0,0,0.0087890625,62.7099609375,0)" xlink:href="#F"/><use transform="matrix(0.0087890625,0,0,0.0087890625,72.24609375,0)" xlink:href="#G"/></g><path d="M1216-1011c-1 297-202 441-512 441H361V0H169v-1456h537c297-6 510 164 510 445zm-192 2c1-178-126-288-307-289H361v571h345c196 1 318-92 318-282" id="aa"/><g id="p"><use transform="matrix(0.0087890625,0,0,0.0087890625,0,0)" xlink:href="#aa"/><use transform="matrix(0.0087890625,0,0,0.0087890625,11.35546875,0)" xlink:href="#G"/><use transform="matrix(0.0087890625,0,0,0.0087890625,17.2705078125,0)" xlink:href="#N"/><use transform="matrix(0.0087890625,0,0,0.0087890625,27.5361328125,0)" xlink:href="#S"/><use transform="matrix(0.0087890625,0,0,0.0087890625,37.6875,0)" xlink:href="#C"/><use transform="matrix(0.0087890625,0,0,0.0087890625,47.6103515625,0)" xlink:href="#T"/><use transform="matrix(0.0087890625,0,0,0.0087890625,57.0322265625,0)" xlink:href="#F"/><use transform="matrix(0.0087890625,0,0,0.0087890625,66.568359375,0)" xlink:href="#G"/></g><path d="M362-157h690V0H169v-1456h193v1299" id="ab"/><g id="q"><use transform="matrix(0.0087890625,0,0,0.0087890625,0,0)" xlink:href="#ab"/><use transform="matrix(0.0087890625,0,0,0.0087890625,9.685546875,0)" xlink:href="#N"/><use transform="matrix(0.0087890625,0,0,0.0087890625,19.951171875,0)" xlink:href="#I"/></g><path d="M730-137c145 0 253-29 323-105v-327H716v-156h528v534C1148-51 964 20 729 20c-394 0-598-279-607-678v-127c-5-410 194-690 585-691 310-1 499 171 537 447h-192c-36-193-151-289-344-289-285 0-393 220-393 528v119c-5 296 140 534 415 534" id="ac"/><g id="r"><use transform="matrix(0.0087890625,0,0,0.0087890625,0,0)" xlink:href="#ac"/><use transform="matrix(0.0087890625,0,0,0.0087890625,12.2607421875,0)" xlink:href="#F"/><use transform="matrix(0.0087890625,0,0,0.0087890625,21.796875,0)" xlink:href="#K"/><use transform="matrix(0.0087890625,0,0,0.0087890625,31.728515625,0)" xlink:href="#F"/><use transform="matrix(0.0087890625,0,0,0.0087890625,41.2646484375,0)" xlink:href="#G"/><use transform="matrix(0.0087890625,0,0,0.0087890625,47.00390625,0)" xlink:href="#x"/><use transform="matrix(0.0087890625,0,0,0.0087890625,56.794921875,0)" xlink:href="#E"/><use transform="matrix(0.0087890625,0,0,0.0087890625,62.4990234375,0)" xlink:href="#N"/><use transform="matrix(0.0087890625,0,0,0.0087890625,72.7646484375,0)" xlink:href="#G"/></g><g id="s"><use transform="matrix(0.0087890625,0,0,0.0087890625,0,0)" xlink:href="#H"/><use transform="matrix(0.0087890625,0,0,0.0087890625,12.83203125,0)" xlink:href="#N"/><use transform="matrix(0.0087890625,0,0,0.0087890625,23.09765625,0)" xlink:href="#S"/><use transform="matrix(0.0087890625,0,0,0.0087890625,33.2490234375,0)" xlink:href="#F"/></g><use transform="matrix(0.0087890625,0,0,0.0087890625,0,0)" xlink:href="#O" id="t"/><use transform="matrix(0.0087890625,0,0,0.0087890625,0,0)" xlink:href="#P" id="u"/><use transform="matrix(0.0087890625,0,0,0.0087890625,0,0)" xlink:href="#Q" id="v"/></defs></g></svg>